<?xml version="1.0" encoding="UTF-8"?>
<svg width="320" height="400" viewBox="0 0 320 400" fill="none" xmlns="http://www.w3.org/2000/svg">
  <g stroke="#FFD580" stroke-width="16" stroke-linecap="round" stroke-linejoin="round" fill="none">
    <!-- Thumb -->
    <path d="M60,220 Q30,180 70,140 Q110,100 130,180" />
    <!-- Index Finger -->
    <path d="M110,120 Q120,40 160,60 Q200,80 170,180" />
    <!-- Middle Finger -->
    <path d="M160,110 Q170,20 210,60 Q250,100 190,200" />
    <!-- Ring Finger -->
    <path d="M200,130 Q230,60 260,120 Q290,180 210,220" />
    <!-- Pinky -->
    <path d="M240,180 Q300,200 260,250 Q220,300 180,220" />
    <!-- Palm Curve -->
    <path d="M70,250 Q100,370 220,350 Q300,320 240,180" />
  </g>
</svg> 